<svg width="1024" height="1024" viewBox="0 0 1024 1024" fill="none" xmlns="http://www.w3.org/2000/svg">
<g id="test_main">
<rect width="1024" height="1024" rx="224" fill="url(#paint0_linear_535_1877)"/>
<g clip-path="url(#paint1_angular_535_1877_clip_path)" data-figma-skip-parse="true"><g transform="matrix(0.108281 -0.186899 0.186899 0.108281 512 512)"><foreignObject x="-1366.57" y="-1366.57" width="2733.15" height="2733.15"><div xmlns="http://www.w3.org/1999/xhtml" style="background:conic-gradient(from 90deg,rgba(255, 255, 255, 1) 0deg,rgba(0, 0, 255, 1) 90deg,rgba(0, 0, 0, 1) 180deg,rgba(0, 0, 255, 1) 270deg,rgba(255, 255, 255, 1) 360deg);height:100%;width:100%;opacity:1"></div></foreignObject></g></g><path id="lum" d="M512 296C615.725 296 702.371 369.112 723.222 466.612L691.121 469.744C672.027 388.491 599.079 328 512 328C410.38 328 328 410.38 328 512C328 613.62 410.38 696 512 696C599.08 696 672.027 635.508 691.121 554.255L723.222 557.387C702.372 654.888 615.725 728 512 728C392.707 728 296 631.294 296 512C296 392.706 392.706 296 512 296Z" data-figma-gradient-fill="{&#34;type&#34;:&#34;GRADIENT_ANGULAR&#34;,&#34;stops&#34;:[{&#34;color&#34;:{&#34;r&#34;:1.0,&#34;g&#34;:1.0,&#34;b&#34;:1.0,&#34;a&#34;:1.0},&#34;position&#34;:0.0},{&#34;color&#34;:{&#34;r&#34;:0.0,&#34;g&#34;:0.0,&#34;b&#34;:1.0,&#34;a&#34;:1.0},&#34;position&#34;:0.250},{&#34;color&#34;:{&#34;r&#34;:0.0,&#34;g&#34;:0.0,&#34;b&#34;:0.0,&#34;a&#34;:1.0},&#34;position&#34;:0.50},{&#34;color&#34;:{&#34;r&#34;:0.0,&#34;g&#34;:0.0,&#34;b&#34;:1.0,&#34;a&#34;:1.0},&#34;position&#34;:0.750}],&#34;stopsVar&#34;:[{&#34;color&#34;:{&#34;r&#34;:1.0,&#34;g&#34;:1.0,&#34;b&#34;:1.0,&#34;a&#34;:1.0},&#34;position&#34;:0.0},{&#34;color&#34;:{&#34;r&#34;:0.0,&#34;g&#34;:0.0,&#34;b&#34;:1.0,&#34;a&#34;:1.0},&#34;position&#34;:0.250},{&#34;color&#34;:{&#34;r&#34;:0.0,&#34;g&#34;:0.0,&#34;b&#34;:0.0,&#34;a&#34;:1.0},&#34;position&#34;:0.50},{&#34;color&#34;:{&#34;r&#34;:0.0,&#34;g&#34;:0.0,&#34;b&#34;:1.0,&#34;a&#34;:1.0},&#34;position&#34;:0.750}],&#34;transform&#34;:{&#34;m00&#34;:216.56195068359375,&#34;m01&#34;:373.79797363281250,&#34;m02&#34;:216.82000732421875,&#34;m10&#34;:-373.79797363281250,&#34;m11&#34;:216.56196594238281,&#34;m12&#34;:590.61798095703125},&#34;opacity&#34;:1.0,&#34;blendMode&#34;:&#34;NORMAL&#34;,&#34;visible&#34;:true}"/>
<g clip-path="url(#paint2_angular_535_1877_clip_path)" data-figma-skip-parse="true"><g transform="matrix(0.133691 0.227646 -0.227646 0.133691 512 512)"><foreignObject x="-1368.7" y="-1368.7" width="2737.4" height="2737.4"><div xmlns="http://www.w3.org/1999/xhtml" style="background:conic-gradient(from 90deg,rgba(0, 0, 255, 1) 0deg,rgba(255, 255, 255, 1) 180deg,rgba(0, 0, 255, 1) 360deg);height:100%;width:100%;opacity:1"></div></foreignObject></g></g><path id="sat" d="M512 248C640.682 248 747.86 340.068 771.257 461.926L731.235 465.83C709.955 364.269 619.885 288 512 288C388.288 288 288 388.288 288 512C288 635.712 388.288 736 512 736C619.885 736 709.955 659.73 731.235 558.169L771.257 562.073C747.861 683.931 640.682 776 512 776C366.197 776 248 657.803 248 512C248 366.197 366.197 248 512 248Z" data-figma-gradient-fill="{&#34;type&#34;:&#34;GRADIENT_ANGULAR&#34;,&#34;stops&#34;:[{&#34;color&#34;:{&#34;r&#34;:0.0,&#34;g&#34;:0.0,&#34;b&#34;:1.0,&#34;a&#34;:1.0},&#34;position&#34;:0.0},{&#34;color&#34;:{&#34;r&#34;:1.0,&#34;g&#34;:1.0,&#34;b&#34;:1.0,&#34;a&#34;:1.0},&#34;position&#34;:0.50}],&#34;stopsVar&#34;:[{&#34;color&#34;:{&#34;r&#34;:0.0,&#34;g&#34;:0.0,&#34;b&#34;:1.0,&#34;a&#34;:1.0},&#34;position&#34;:0.0},{&#34;color&#34;:{&#34;r&#34;:1.0,&#34;g&#34;:1.0,&#34;b&#34;:1.0,&#34;a&#34;:1.0},&#34;position&#34;:0.50}],&#34;transform&#34;:{&#34;m00&#34;:267.38180541992188,&#34;m01&#34;:-455.29217529296875,&#34;m02&#34;:605.95520019531250,&#34;m10&#34;:455.29217529296875,&#34;m11&#34;:267.38180541992188,&#34;m12&#34;:150.66299438476562},&#34;opacity&#34;:1.0,&#34;blendMode&#34;:&#34;NORMAL&#34;,&#34;visible&#34;:true}"/>
<g clip-path="url(#paint3_angular_535_1877_clip_path)" data-figma-skip-parse="true"><g transform="matrix(-0.159695 0.277304 -0.277304 -0.159695 512 512)"><foreignObject x="-1365.62" y="-1365.62" width="2731.24" height="2731.24"><div xmlns="http://www.w3.org/1999/xhtml" style="background:conic-gradient(from 90deg,rgba(255, 0, 0, 1) 0deg,rgba(255, 153, 0, 1) 36deg,rgba(204, 255, 0, 1) 72deg,rgba(51, 255, 0, 1) 108deg,rgba(0, 255, 102, 1) 144deg,rgba(0, 255, 255, 1) 180deg,rgba(0, 102, 255, 1) 216deg,rgba(51, 0, 255, 1) 252deg,rgba(204, 0, 255, 1) 288deg,rgba(255, 0, 153, 1) 324deg,rgba(255, 0, 0, 1) 360deg);height:100%;width:100%;opacity:1"></div></foreignObject></g></g><path id="hue" d="M512 192C669.791 192 800.905 306.207 827.196 456.468L779.252 461.146C755.438 335.23 644.841 240 512 240C361.779 240 240 361.779 240 512C240 662.221 361.779 784 512 784C644.841 784 755.438 688.77 779.252 562.854L827.196 567.531C800.905 717.793 669.791 832 512 832C335.269 832 192 688.731 192 512C192 335.269 335.269 192 512 192Z" data-figma-gradient-fill="{&#34;type&#34;:&#34;GRADIENT_ANGULAR&#34;,&#34;stops&#34;:[{&#34;color&#34;:{&#34;r&#34;:1.0,&#34;g&#34;:0.0,&#34;b&#34;:0.0,&#34;a&#34;:1.0},&#34;position&#34;:0.0},{&#34;color&#34;:{&#34;r&#34;:1.0,&#34;g&#34;:0.60000002384185791,&#34;b&#34;:0.0,&#34;a&#34;:1.0},&#34;position&#34;:0.10000000149011612},{&#34;color&#34;:{&#34;r&#34;:0.80000001192092896,&#34;g&#34;:1.0,&#34;b&#34;:0.0,&#34;a&#34;:1.0},&#34;position&#34;:0.20000000298023224},{&#34;color&#34;:{&#34;r&#34;:0.20000000298023224,&#34;g&#34;:1.0,&#34;b&#34;:0.0,&#34;a&#34;:1.0},&#34;position&#34;:0.30000001192092896},{&#34;color&#34;:{&#34;r&#34;:0.0,&#34;g&#34;:1.0,&#34;b&#34;:0.40000000596046448,&#34;a&#34;:1.0},&#34;position&#34;:0.40000000596046448},{&#34;color&#34;:{&#34;r&#34;:0.0,&#34;g&#34;:1.0,&#34;b&#34;:1.0,&#34;a&#34;:1.0},&#34;position&#34;:0.50},{&#34;color&#34;:{&#34;r&#34;:0.0,&#34;g&#34;:0.40000000596046448,&#34;b&#34;:1.0,&#34;a&#34;:1.0},&#34;position&#34;:0.60000002384185791},{&#34;color&#34;:{&#34;r&#34;:0.20000000298023224,&#34;g&#34;:0.0,&#34;b&#34;:1.0,&#34;a&#34;:1.0},&#34;position&#34;:0.70000004768371582},{&#34;color&#34;:{&#34;r&#34;:0.80000001192092896,&#34;g&#34;:0.0,&#34;b&#34;:1.0,&#34;a&#34;:1.0},&#34;position&#34;:0.80000001192092896},{&#34;color&#34;:{&#34;r&#34;:1.0,&#34;g&#34;:0.0,&#34;b&#34;:0.60000002384185791,&#34;a&#34;:1.0},&#34;position&#34;:0.89999997615814209},{&#34;color&#34;:{&#34;r&#34;:1.0,&#34;g&#34;:0.0,&#34;b&#34;:0.0,&#34;a&#34;:1.0},&#34;position&#34;:1.0}],&#34;stopsVar&#34;:[{&#34;color&#34;:{&#34;r&#34;:1.0,&#34;g&#34;:0.0,&#34;b&#34;:0.0,&#34;a&#34;:1.0},&#34;position&#34;:0.0},{&#34;color&#34;:{&#34;r&#34;:1.0,&#34;g&#34;:0.60000002384185791,&#34;b&#34;:0.0,&#34;a&#34;:1.0},&#34;position&#34;:0.10000000149011612},{&#34;color&#34;:{&#34;r&#34;:0.80000001192092896,&#34;g&#34;:1.0,&#34;b&#34;:0.0,&#34;a&#34;:1.0},&#34;position&#34;:0.20000000298023224},{&#34;color&#34;:{&#34;r&#34;:0.20000000298023224,&#34;g&#34;:1.0,&#34;b&#34;:0.0,&#34;a&#34;:1.0},&#34;position&#34;:0.30000001192092896},{&#34;color&#34;:{&#34;r&#34;:0.0,&#34;g&#34;:1.0,&#34;b&#34;:0.40000000596046448,&#34;a&#34;:1.0},&#34;position&#34;:0.40000000596046448},{&#34;color&#34;:{&#34;r&#34;:0.0,&#34;g&#34;:1.0,&#34;b&#34;:1.0,&#34;a&#34;:1.0},&#34;position&#34;:0.50},{&#34;color&#34;:{&#34;r&#34;:0.0,&#34;g&#34;:0.40000000596046448,&#34;b&#34;:1.0,&#34;a&#34;:1.0},&#34;position&#34;:0.60000002384185791},{&#34;color&#34;:{&#34;r&#34;:0.20000000298023224,&#34;g&#34;:0.0,&#34;b&#34;:1.0,&#34;a&#34;:1.0},&#34;position&#34;:0.70000004768371582},{&#34;color&#34;:{&#34;r&#34;:0.80000001192092896,&#34;g&#34;:0.0,&#34;b&#34;:1.0,&#34;a&#34;:1.0},&#34;position&#34;:0.80000001192092896},{&#34;color&#34;:{&#34;r&#34;:1.0,&#34;g&#34;:0.0,&#34;b&#34;:0.60000002384185791,&#34;a&#34;:1.0},&#34;position&#34;:0.89999997615814209},{&#34;color&#34;:{&#34;r&#34;:1.0,&#34;g&#34;:0.0,&#34;b&#34;:0.0,&#34;a&#34;:1.0},&#34;position&#34;:1.0}],&#34;transform&#34;:{&#34;m00&#34;:-319.39065551757812,&#34;m01&#34;:-554.60760498046875,&#34;m02&#34;:948.99908447265625,&#34;m10&#34;:554.60760498046875,&#34;m11&#34;:-319.39065551757812,&#34;m12&#34;:394.39147949218750},&#34;opacity&#34;:1.0,&#34;blendMode&#34;:&#34;NORMAL&#34;,&#34;visible&#34;:true}"/>
<g clip-path="url(#paint4_angular_535_1877_clip_path)" data-figma-skip-parse="true"><g transform="matrix(0.11191 -0.194042 0.194042 0.11191 512 512)"><foreignObject x="-1365.85" y="-1365.85" width="2731.71" height="2731.71"><div xmlns="http://www.w3.org/1999/xhtml" style="background:conic-gradient(from 90deg,rgba(255, 255, 255, 1) 0deg,rgba(0, 0, 255, 1) 90deg,rgba(0, 0, 0, 1) 180deg,rgba(0, 0, 255, 1) 270deg,rgba(255, 255, 255, 1) 360deg);height:100%;width:100%;opacity:0.75"></div></foreignObject></g></g><path id="lum_border" d="M512 288C619.885 288 709.955 364.269 731.235 465.83L723.222 466.612C702.371 369.112 615.725 296 512 296C392.707 296 296 392.707 296 512C296 631.294 392.707 728 512 728C615.725 728 702.372 654.888 723.222 557.387L731.235 558.169C709.955 659.73 619.885 736 512 736C388.288 736 288 635.712 288 512C288 388.288 388.288 288 512 288Z" data-figma-gradient-fill="{&#34;type&#34;:&#34;GRADIENT_ANGULAR&#34;,&#34;stops&#34;:[{&#34;color&#34;:{&#34;r&#34;:1.0,&#34;g&#34;:1.0,&#34;b&#34;:1.0,&#34;a&#34;:1.0},&#34;position&#34;:0.0},{&#34;color&#34;:{&#34;r&#34;:0.0,&#34;g&#34;:0.0,&#34;b&#34;:1.0,&#34;a&#34;:1.0},&#34;position&#34;:0.250},{&#34;color&#34;:{&#34;r&#34;:0.0,&#34;g&#34;:0.0,&#34;b&#34;:0.0,&#34;a&#34;:1.0},&#34;position&#34;:0.50},{&#34;color&#34;:{&#34;r&#34;:0.0,&#34;g&#34;:0.0,&#34;b&#34;:1.0,&#34;a&#34;:1.0},&#34;position&#34;:0.750}],&#34;stopsVar&#34;:[{&#34;color&#34;:{&#34;r&#34;:1.0,&#34;g&#34;:1.0,&#34;b&#34;:1.0,&#34;a&#34;:1.0},&#34;position&#34;:0.0},{&#34;color&#34;:{&#34;r&#34;:0.0,&#34;g&#34;:0.0,&#34;b&#34;:1.0,&#34;a&#34;:1.0},&#34;position&#34;:0.250},{&#34;color&#34;:{&#34;r&#34;:0.0,&#34;g&#34;:0.0,&#34;b&#34;:0.0,&#34;a&#34;:1.0},&#34;position&#34;:0.50},{&#34;color&#34;:{&#34;r&#34;:0.0,&#34;g&#34;:0.0,&#34;b&#34;:1.0,&#34;a&#34;:1.0},&#34;position&#34;:0.750}],&#34;transform&#34;:{&#34;m00&#34;:223.81954956054688,&#34;m01&#34;:388.083496093750,&#34;m02&#34;:206.04844665527344,&#34;m10&#34;:-388.083496093750,&#34;m11&#34;:223.81954956054688,&#34;m12&#34;:594.13195800781250},&#34;opacity&#34;:0.750,&#34;blendMode&#34;:&#34;NORMAL&#34;,&#34;visible&#34;:true}"/>
<g clip-path="url(#paint5_angular_535_1877_clip_path)" data-figma-skip-parse="true"><g transform="matrix(0.134552 0.236389 -0.236389 0.134552 512 512)"><foreignObject x="-1363.75" y="-1363.75" width="2727.51" height="2727.51"><div xmlns="http://www.w3.org/1999/xhtml" style="background:conic-gradient(from 90deg,rgba(0, 0, 255, 1) 0deg,rgba(255, 255, 255, 1) 180deg,rgba(0, 0, 255, 1) 360deg);height:100%;width:100%;opacity:0.75"></div></foreignObject></g></g><path id="sat_border" d="M512 240C644.841 240 755.438 335.23 779.252 461.146L771.257 461.926C747.86 340.068 640.682 248 512 248C366.197 248 248 366.197 248 512C248 657.803 366.197 776 512 776C640.682 776 747.861 683.931 771.257 562.073L779.252 562.854C755.438 688.77 644.841 784 512 784C361.779 784 240 662.221 240 512C240 361.779 361.779 240 512 240Z" data-figma-gradient-fill="{&#34;type&#34;:&#34;GRADIENT_ANGULAR&#34;,&#34;stops&#34;:[{&#34;color&#34;:{&#34;r&#34;:0.0,&#34;g&#34;:0.0,&#34;b&#34;:1.0,&#34;a&#34;:1.0},&#34;position&#34;:0.0},{&#34;color&#34;:{&#34;r&#34;:1.0,&#34;g&#34;:1.0,&#34;b&#34;:1.0,&#34;a&#34;:1.0},&#34;position&#34;:0.50}],&#34;stopsVar&#34;:[{&#34;color&#34;:{&#34;r&#34;:0.0,&#34;g&#34;:0.0,&#34;b&#34;:1.0,&#34;a&#34;:1.0},&#34;position&#34;:0.0},{&#34;color&#34;:{&#34;r&#34;:1.0,&#34;g&#34;:1.0,&#34;b&#34;:1.0,&#34;a&#34;:1.0},&#34;position&#34;:0.50}],&#34;transform&#34;:{&#34;m00&#34;:269.10433959960938,&#34;m01&#34;:-472.777832031250,&#34;m02&#34;:613.83673095703125,&#34;m10&#34;:472.777832031250,&#34;m11&#34;:269.10433959960938,&#34;m12&#34;:141.05891418457031},&#34;opacity&#34;:0.750,&#34;blendMode&#34;:&#34;NORMAL&#34;,&#34;visible&#34;:true}"/>
<g clip-path="url(#paint6_angular_535_1877_clip_path)" data-figma-skip-parse="true"><g transform="matrix(-0.163688 0.284236 -0.284236 -0.163688 512 512)"><foreignObject x="-1365.62" y="-1365.62" width="2731.24" height="2731.24"><div xmlns="http://www.w3.org/1999/xhtml" style="background:conic-gradient(from 90deg,rgba(255, 0, 0, 1) 0deg,rgba(255, 153, 0, 1) 36deg,rgba(204, 255, 0, 1) 72deg,rgba(51, 255, 0, 1) 108deg,rgba(0, 255, 102, 1) 144deg,rgba(0, 255, 255, 1) 180deg,rgba(0, 102, 255, 1) 216deg,rgba(51, 0, 255, 1) 252deg,rgba(204, 0, 255, 1) 288deg,rgba(255, 0, 153, 1) 324deg,rgba(255, 0, 0, 1) 360deg);height:100%;width:100%;opacity:0.5"></div></foreignObject></g></g><path id="hue_border" d="M512 184C673.949 184 808.483 301.37 835.184 455.688L827.196 456.468C800.905 306.207 669.791 192 512 192C335.269 192 192 335.269 192 512C192 688.731 335.269 832 512 832C669.791 832 800.905 717.793 827.196 567.531L835.184 568.311C808.484 722.629 673.949 840 512 840C330.851 840 184 693.149 184 512C184 330.851 330.851 184 512 184Z" data-figma-gradient-fill="{&#34;type&#34;:&#34;GRADIENT_ANGULAR&#34;,&#34;stops&#34;:[{&#34;color&#34;:{&#34;r&#34;:1.0,&#34;g&#34;:0.0,&#34;b&#34;:0.0,&#34;a&#34;:1.0},&#34;position&#34;:0.0},{&#34;color&#34;:{&#34;r&#34;:1.0,&#34;g&#34;:0.60000002384185791,&#34;b&#34;:0.0,&#34;a&#34;:1.0},&#34;position&#34;:0.10000000149011612},{&#34;color&#34;:{&#34;r&#34;:0.80000001192092896,&#34;g&#34;:1.0,&#34;b&#34;:0.0,&#34;a&#34;:1.0},&#34;position&#34;:0.20000000298023224},{&#34;color&#34;:{&#34;r&#34;:0.20000000298023224,&#34;g&#34;:1.0,&#34;b&#34;:0.0,&#34;a&#34;:1.0},&#34;position&#34;:0.30000001192092896},{&#34;color&#34;:{&#34;r&#34;:0.0,&#34;g&#34;:1.0,&#34;b&#34;:0.40000000596046448,&#34;a&#34;:1.0},&#34;position&#34;:0.40000000596046448},{&#34;color&#34;:{&#34;r&#34;:0.0,&#34;g&#34;:1.0,&#34;b&#34;:1.0,&#34;a&#34;:1.0},&#34;position&#34;:0.50},{&#34;color&#34;:{&#34;r&#34;:0.0,&#34;g&#34;:0.40000000596046448,&#34;b&#34;:1.0,&#34;a&#34;:1.0},&#34;position&#34;:0.60000002384185791},{&#34;color&#34;:{&#34;r&#34;:0.20000000298023224,&#34;g&#34;:0.0,&#34;b&#34;:1.0,&#34;a&#34;:1.0},&#34;position&#34;:0.70000004768371582},{&#34;color&#34;:{&#34;r&#34;:0.80000001192092896,&#34;g&#34;:0.0,&#34;b&#34;:1.0,&#34;a&#34;:1.0},&#34;position&#34;:0.80000001192092896},{&#34;color&#34;:{&#34;r&#34;:1.0,&#34;g&#34;:0.0,&#34;b&#34;:0.60000002384185791,&#34;a&#34;:1.0},&#34;position&#34;:0.89999997615814209},{&#34;color&#34;:{&#34;r&#34;:1.0,&#34;g&#34;:0.0,&#34;b&#34;:0.0,&#34;a&#34;:1.0},&#34;position&#34;:1.0}],&#34;stopsVar&#34;:[{&#34;color&#34;:{&#34;r&#34;:1.0,&#34;g&#34;:0.0,&#34;b&#34;:0.0,&#34;a&#34;:1.0},&#34;position&#34;:0.0},{&#34;color&#34;:{&#34;r&#34;:1.0,&#34;g&#34;:0.60000002384185791,&#34;b&#34;:0.0,&#34;a&#34;:1.0},&#34;position&#34;:0.10000000149011612},{&#34;color&#34;:{&#34;r&#34;:0.80000001192092896,&#34;g&#34;:1.0,&#34;b&#34;:0.0,&#34;a&#34;:1.0},&#34;position&#34;:0.20000000298023224},{&#34;color&#34;:{&#34;r&#34;:0.20000000298023224,&#34;g&#34;:1.0,&#34;b&#34;:0.0,&#34;a&#34;:1.0},&#34;position&#34;:0.30000001192092896},{&#34;color&#34;:{&#34;r&#34;:0.0,&#34;g&#34;:1.0,&#34;b&#34;:0.40000000596046448,&#34;a&#34;:1.0},&#34;position&#34;:0.40000000596046448},{&#34;color&#34;:{&#34;r&#34;:0.0,&#34;g&#34;:1.0,&#34;b&#34;:1.0,&#34;a&#34;:1.0},&#34;position&#34;:0.50},{&#34;color&#34;:{&#34;r&#34;:0.0,&#34;g&#34;:0.40000000596046448,&#34;b&#34;:1.0,&#34;a&#34;:1.0},&#34;position&#34;:0.60000002384185791},{&#34;color&#34;:{&#34;r&#34;:0.20000000298023224,&#34;g&#34;:0.0,&#34;b&#34;:1.0,&#34;a&#34;:1.0},&#34;position&#34;:0.70000004768371582},{&#34;color&#34;:{&#34;r&#34;:0.80000001192092896,&#34;g&#34;:0.0,&#34;b&#34;:1.0,&#34;a&#34;:1.0},&#34;position&#34;:0.80000001192092896},{&#34;color&#34;:{&#34;r&#34;:1.0,&#34;g&#34;:0.0,&#34;b&#34;:0.60000002384185791,&#34;a&#34;:1.0},&#34;position&#34;:0.89999997615814209},{&#34;color&#34;:{&#34;r&#34;:1.0,&#34;g&#34;:0.0,&#34;b&#34;:0.0,&#34;a&#34;:1.0},&#34;position&#34;:1.0}],&#34;transform&#34;:{&#34;m00&#34;:-327.37542724609375,&#34;m01&#34;:-568.47277832031250,&#34;m02&#34;:959.92401123046875,&#34;m10&#34;:568.47277832031250,&#34;m11&#34;:-327.37542724609375,&#34;m12&#34;:391.45126342773438},&#34;opacity&#34;:0.50,&#34;blendMode&#34;:&#34;NORMAL&#34;,&#34;visible&#34;:true}"/>
</g>
<defs>
<clipPath id="paint1_angular_535_1877_clip_path"><path id="lum" d="M512 296C615.725 296 702.371 369.112 723.222 466.612L691.121 469.744C672.027 388.491 599.079 328 512 328C410.38 328 328 410.38 328 512C328 613.62 410.38 696 512 696C599.08 696 672.027 635.508 691.121 554.255L723.222 557.387C702.372 654.888 615.725 728 512 728C392.707 728 296 631.294 296 512C296 392.706 392.706 296 512 296Z"/></clipPath><clipPath id="paint2_angular_535_1877_clip_path"><path id="sat" d="M512 248C640.682 248 747.86 340.068 771.257 461.926L731.235 465.83C709.955 364.269 619.885 288 512 288C388.288 288 288 388.288 288 512C288 635.712 388.288 736 512 736C619.885 736 709.955 659.73 731.235 558.169L771.257 562.073C747.861 683.931 640.682 776 512 776C366.197 776 248 657.803 248 512C248 366.197 366.197 248 512 248Z"/></clipPath><clipPath id="paint3_angular_535_1877_clip_path"><path id="hue" d="M512 192C669.791 192 800.905 306.207 827.196 456.468L779.252 461.146C755.438 335.23 644.841 240 512 240C361.779 240 240 361.779 240 512C240 662.221 361.779 784 512 784C644.841 784 755.438 688.77 779.252 562.854L827.196 567.531C800.905 717.793 669.791 832 512 832C335.269 832 192 688.731 192 512C192 335.269 335.269 192 512 192Z"/></clipPath><clipPath id="paint4_angular_535_1877_clip_path"><path id="lum_border" d="M512 288C619.885 288 709.955 364.269 731.235 465.83L723.222 466.612C702.371 369.112 615.725 296 512 296C392.707 296 296 392.707 296 512C296 631.294 392.707 728 512 728C615.725 728 702.372 654.888 723.222 557.387L731.235 558.169C709.955 659.73 619.885 736 512 736C388.288 736 288 635.712 288 512C288 388.288 388.288 288 512 288Z"/></clipPath><clipPath id="paint5_angular_535_1877_clip_path"><path id="sat_border" d="M512 240C644.841 240 755.438 335.23 779.252 461.146L771.257 461.926C747.86 340.068 640.682 248 512 248C366.197 248 248 366.197 248 512C248 657.803 366.197 776 512 776C640.682 776 747.861 683.931 771.257 562.073L779.252 562.854C755.438 688.77 644.841 784 512 784C361.779 784 240 662.221 240 512C240 361.779 361.779 240 512 240Z"/></clipPath><clipPath id="paint6_angular_535_1877_clip_path"><path id="hue_border" d="M512 184C673.949 184 808.483 301.37 835.184 455.688L827.196 456.468C800.905 306.207 669.791 192 512 192C335.269 192 192 335.269 192 512C192 688.731 335.269 832 512 832C669.791 832 800.905 717.793 827.196 567.531L835.184 568.311C808.484 722.629 673.949 840 512 840C330.851 840 184 693.149 184 512C184 330.851 330.851 184 512 184Z"/></clipPath><linearGradient id="paint0_linear_535_1877" x1="1024" y1="0" x2="0" y2="1024" gradientUnits="userSpaceOnUse">
<stop stop-color="#00004D"/>
<stop offset="1" stop-color="#06001A"/>
</linearGradient>
</defs>
</svg>
